<?xml version="1.0" encoding="UTF-8" ?>
<!DOCTYPE svg PUBLIC "-//W3C//DTD SVG 1.1//EN" "http://www.w3.org/Graphics/SVG/1.1/DTD/svg11.dtd">
<svg width="512pt" height="512pt" viewBox="0 0 512 512" version="1.1" xmlns="http://www.w3.org/2000/svg">
    <defs><clipPath id="clip-rect"><use href="#back" /></clipPath></defs>
    <rect id="back" x="0" y="0" width="512" height="512" rx="30" ry="30" fill="#fb0000" />
    <path d="M0 210v209c20 15 30 22 45 29 57 29 130 35 200 17 8-2 9-1 9-1 4 5 14 17 23 27 6 7 14 14 19 19l2 2h163c11-11 16-21 19-32 7-24 3-58-10-90-2-4-4-2-6-1-7 3-10 5-14 7-3 2-2 3-2 4 5 28-3 49-23 57-25 11-52 3-86-27-3-3-5-4-5-5l4-2c64-45 102-113 108-191 1-5 1-34 0-40-4-74-38-144-93-190l-2-2H175s2 0 3 1c12 2 23 5 33 9 64 25 108 89 123 178 1 8 2 14 3 26 1 5 1 35 0 41-3 42-15 76-36 104-4 6-11 14-13 14-1 1-2-1-2-1-29-27-57-46-89-56-46-15-98-11-148 12-4 2-6 2-6 2-2-3-8-17-12-27-13-29-23-66-26-98v-5c0-3-1-32 0-36C10 82 58 15 122 2c2 0 5-1 6-1 2-1 4-1 4-1H0Zm108 140c32 3 58 19 94 56 6 5 6 5 2 6-3 1-23 1-31 0-39-2-77-21-105-51-4-5-5-6-2-6 15-5 29-6 42-5Z" fill="#fbfbfb" clip-path="url(#clip-rect)" />
</svg>